# xmcd
# 
# Track frame offsets:
#     150
#     21535
#     44304
#     79377
#     92903
#     112507
#     131387
#     148480
# 
# Disc length: 2266
# 
# Revision: 5
# Processed by: cddbd v1.5.2PL0 Copyright (c) Steve Scherf et al.
# Submitted via: fre:ac v1.0.27
# 
DISCID=6b08d808
DTITLE=Boston - Boston
DYEAR=1976
DGENRE=Progressive Hard Rock
TTITLE0=More Than A Feeling
TTITLE1=Peace Of Mind
TTITLE2=Foreplay/Long Time
TTITLE3=Rock and Roll Band
TTITLE4=Smokin'
TTITLE5=Hitch A Ride
TTITLE6=Something About You
TTITLE7=Let Me Take You Home Tonight
EXTD=YEAR: 1976
EXTT0=
EXTT1=
EXTT2=
EXTT3=
EXTT4=
EXTT5=
EXTT6=
EXTT7=
PLAYORDER=
